<mxfile host="app.diagrams.net" modified="2024-02-08T11:54:50.375Z" agent="Mozilla/5.0 (X11; Linux x86_64; rv:122.0) Gecko/20100101 Firefox/122.0" etag="x-ZIHGWUbJx11FAHh1aM" version="22.1.21" type="device" pages="2">
  <diagram name="overview" id="GET8UmxSIGGWrLy_cP3R">
    <mxGraphModel dx="1328" dy="1690" grid="1" gridSize="10" guides="1" tooltips="1" connect="1" arrows="1" fold="1" page="1" pageScale="1" pageWidth="850" pageHeight="1100" math="0" shadow="0">
      <root>
        <mxCell id="0" />
        <mxCell id="1" parent="0" />
        <mxCell id="bXV5zIZJ3tVgDScK4M3a-2" value="" style="group" vertex="1" connectable="0" parent="1">
          <mxGeometry x="50" width="640" height="264" as="geometry" />
        </mxCell>
        <mxCell id="c8XRi-1oRNuHquX3VU6I-2" style="edgeStyle=orthogonalEdgeStyle;rounded=0;orthogonalLoop=1;jettySize=auto;html=1;" edge="1" parent="bXV5zIZJ3tVgDScK4M3a-2" source="u7AJlidA8m8otaHBb1mP-8" target="c8XRi-1oRNuHquX3VU6I-1">
          <mxGeometry relative="1" as="geometry" />
        </mxCell>
        <mxCell id="u7AJlidA8m8otaHBb1mP-8" value="Go Auth" style="outlineConnect=0;dashed=0;verticalLabelPosition=bottom;verticalAlign=top;align=center;html=1;shape=mxgraph.aws3.lambda_function;fillColor=#F58534;gradientColor=none;" vertex="1" parent="bXV5zIZJ3tVgDScK4M3a-2">
          <mxGeometry x="294.5" width="69" height="72" as="geometry" />
        </mxCell>
        <mxCell id="bXV5zIZJ3tVgDScK4M3a-1" value="" style="group" vertex="1" connectable="0" parent="bXV5zIZJ3tVgDScK4M3a-2">
          <mxGeometry y="174" width="640" height="90" as="geometry" />
        </mxCell>
        <mxCell id="u7AJlidA8m8otaHBb1mP-2" value="Api-Gateway" style="sketch=0;points=[[0,0,0],[0.25,0,0],[0.5,0,0],[0.75,0,0],[1,0,0],[0,1,0],[0.25,1,0],[0.5,1,0],[0.75,1,0],[1,1,0],[0,0.25,0],[0,0.5,0],[0,0.75,0],[1,0.25,0],[1,0.5,0],[1,0.75,0]];outlineConnect=0;fontColor=#232F3E;fillColor=#E7157B;strokeColor=#ffffff;dashed=0;verticalLabelPosition=bottom;verticalAlign=top;align=center;html=1;fontSize=12;fontStyle=0;aspect=fixed;shape=mxgraph.aws4.resourceIcon;resIcon=mxgraph.aws4.api_gateway;" vertex="1" parent="bXV5zIZJ3tVgDScK4M3a-1">
          <mxGeometry x="290" y="6" width="78" height="78" as="geometry" />
        </mxCell>
        <mxCell id="u7AJlidA8m8otaHBb1mP-4" style="edgeStyle=orthogonalEdgeStyle;rounded=0;orthogonalLoop=1;jettySize=auto;html=1;" edge="1" parent="bXV5zIZJ3tVgDScK4M3a-1" source="u7AJlidA8m8otaHBb1mP-3" target="u7AJlidA8m8otaHBb1mP-2">
          <mxGeometry relative="1" as="geometry" />
        </mxCell>
        <mxCell id="u7AJlidA8m8otaHBb1mP-5" value="/api/endpoint" style="edgeLabel;html=1;align=center;verticalAlign=middle;resizable=0;points=[];" vertex="1" connectable="0" parent="u7AJlidA8m8otaHBb1mP-4">
          <mxGeometry x="0.2632" relative="1" as="geometry">
            <mxPoint as="offset" />
          </mxGeometry>
        </mxCell>
        <mxCell id="u7AJlidA8m8otaHBb1mP-3" value="Internet" style="ellipse;shape=cloud;whiteSpace=wrap;html=1;align=center;" vertex="1" parent="bXV5zIZJ3tVgDScK4M3a-1">
          <mxGeometry y="15" width="100" height="60" as="geometry" />
        </mxCell>
        <mxCell id="u7AJlidA8m8otaHBb1mP-6" value="Service Handling endpoint" style="whiteSpace=wrap;html=1;shape=mxgraph.basic.cloud_rect" vertex="1" parent="bXV5zIZJ3tVgDScK4M3a-1">
          <mxGeometry x="520" width="120" height="90" as="geometry" />
        </mxCell>
        <mxCell id="u7AJlidA8m8otaHBb1mP-7" style="edgeStyle=orthogonalEdgeStyle;rounded=0;orthogonalLoop=1;jettySize=auto;html=1;" edge="1" parent="bXV5zIZJ3tVgDScK4M3a-1" source="u7AJlidA8m8otaHBb1mP-2" target="u7AJlidA8m8otaHBb1mP-6">
          <mxGeometry relative="1" as="geometry" />
        </mxCell>
        <mxCell id="u7AJlidA8m8otaHBb1mP-9" style="edgeStyle=orthogonalEdgeStyle;rounded=0;orthogonalLoop=1;jettySize=auto;html=1;" edge="1" parent="bXV5zIZJ3tVgDScK4M3a-2" source="u7AJlidA8m8otaHBb1mP-2" target="u7AJlidA8m8otaHBb1mP-8">
          <mxGeometry relative="1" as="geometry" />
        </mxCell>
        <mxCell id="u7AJlidA8m8otaHBb1mP-10" style="edgeStyle=orthogonalEdgeStyle;rounded=0;orthogonalLoop=1;jettySize=auto;html=1;" edge="1" parent="bXV5zIZJ3tVgDScK4M3a-2" source="u7AJlidA8m8otaHBb1mP-8" target="u7AJlidA8m8otaHBb1mP-2">
          <mxGeometry relative="1" as="geometry" />
        </mxCell>
        <mxCell id="u7AJlidA8m8otaHBb1mP-11" value="&lt;div&gt;response:{&lt;/div&gt;&lt;div&gt;statusCode: ,&lt;/div&gt;&lt;div&gt;context:{&lt;/div&gt;&lt;div&gt;}&lt;br&gt;&lt;/div&gt;&lt;div&gt;}&lt;br&gt;&lt;/div&gt;" style="edgeLabel;html=1;align=center;verticalAlign=middle;resizable=0;points=[];" vertex="1" connectable="0" parent="u7AJlidA8m8otaHBb1mP-10">
          <mxGeometry x="0.3333" y="-2" relative="1" as="geometry">
            <mxPoint as="offset" />
          </mxGeometry>
        </mxCell>
        <mxCell id="c8XRi-1oRNuHquX3VU6I-1" value="" style="sketch=0;points=[[0,0,0],[0.25,0,0],[0.5,0,0],[0.75,0,0],[1,0,0],[0,1,0],[0.25,1,0],[0.5,1,0],[0.75,1,0],[1,1,0],[0,0.25,0],[0,0.5,0],[0,0.75,0],[1,0.25,0],[1,0.5,0],[1,0.75,0]];outlineConnect=0;fontColor=#232F3E;fillColor=#C925D1;strokeColor=#ffffff;dashed=0;verticalLabelPosition=bottom;verticalAlign=top;align=center;html=1;fontSize=12;fontStyle=0;aspect=fixed;shape=mxgraph.aws4.resourceIcon;resIcon=mxgraph.aws4.dynamodb;" vertex="1" parent="bXV5zIZJ3tVgDScK4M3a-2">
          <mxGeometry x="460" y="-3" width="78" height="78" as="geometry" />
        </mxCell>
        <mxCell id="c8XRi-1oRNuHquX3VU6I-3" style="edgeStyle=orthogonalEdgeStyle;rounded=0;orthogonalLoop=1;jettySize=auto;html=1;entryX=1;entryY=0.5;entryDx=0;entryDy=0;entryPerimeter=0;" edge="1" parent="bXV5zIZJ3tVgDScK4M3a-2" source="c8XRi-1oRNuHquX3VU6I-1" target="u7AJlidA8m8otaHBb1mP-8">
          <mxGeometry relative="1" as="geometry" />
        </mxCell>
      </root>
    </mxGraphModel>
  </diagram>
  <diagram id="QEmnEyoHEoWji_QvBDBT" name="Auth 401">
    <mxGraphModel dx="2178" dy="1690" grid="1" gridSize="10" guides="1" tooltips="1" connect="1" arrows="1" fold="1" page="1" pageScale="1" pageWidth="850" pageHeight="1100" math="0" shadow="0">
      <root>
        <mxCell id="0" />
        <mxCell id="1" parent="0" />
        <mxCell id="6N4GKQXyynScPxJoTJOr-4" value="" style="rounded=1;whiteSpace=wrap;html=1;" vertex="1" parent="1">
          <mxGeometry x="200" y="170" width="520" height="310" as="geometry" />
        </mxCell>
        <mxCell id="6N4GKQXyynScPxJoTJOr-14" style="edgeStyle=orthogonalEdgeStyle;rounded=0;orthogonalLoop=1;jettySize=auto;html=1;" edge="1" parent="1" source="6N4GKQXyynScPxJoTJOr-2" target="6N4GKQXyynScPxJoTJOr-13">
          <mxGeometry relative="1" as="geometry">
            <Array as="points">
              <mxPoint x="619" y="66" />
            </Array>
          </mxGeometry>
        </mxCell>
        <mxCell id="6N4GKQXyynScPxJoTJOr-15" value="&lt;div&gt;statusCode:&lt;/div&gt;&lt;div&gt;context&lt;br&gt;&lt;/div&gt;" style="edgeLabel;html=1;align=center;verticalAlign=middle;resizable=0;points=[];" vertex="1" connectable="0" parent="6N4GKQXyynScPxJoTJOr-14">
          <mxGeometry x="0.1589" y="-1" relative="1" as="geometry">
            <mxPoint as="offset" />
          </mxGeometry>
        </mxCell>
        <mxCell id="wtmkTjRzIlzetdW1KhO2-3" style="edgeStyle=orthogonalEdgeStyle;rounded=0;orthogonalLoop=1;jettySize=auto;html=1;" edge="1" parent="1" source="6N4GKQXyynScPxJoTJOr-2" target="wtmkTjRzIlzetdW1KhO2-2">
          <mxGeometry relative="1" as="geometry" />
        </mxCell>
        <mxCell id="wtmkTjRzIlzetdW1KhO2-4" value="Username" style="edgeLabel;html=1;align=center;verticalAlign=middle;resizable=0;points=[];" vertex="1" connectable="0" parent="wtmkTjRzIlzetdW1KhO2-3">
          <mxGeometry x="0.0732" y="1" relative="1" as="geometry">
            <mxPoint x="1" as="offset" />
          </mxGeometry>
        </mxCell>
        <mxCell id="6N4GKQXyynScPxJoTJOr-2" value="Authorizer" style="outlineConnect=0;dashed=0;verticalLabelPosition=bottom;verticalAlign=top;align=center;html=1;shape=mxgraph.aws3.lambda_function;fillColor=#F58534;gradientColor=none;" vertex="1" parent="1">
          <mxGeometry x="490" y="30" width="69" height="72" as="geometry" />
        </mxCell>
        <mxCell id="6N4GKQXyynScPxJoTJOr-3" value="" style="sketch=0;points=[[0,0,0],[0.25,0,0],[0.5,0,0],[0.75,0,0],[1,0,0],[0,1,0],[0.25,1,0],[0.5,1,0],[0.75,1,0],[1,1,0],[0,0.25,0],[0,0.5,0],[0,0.75,0],[1,0.25,0],[1,0.5,0],[1,0.75,0]];outlineConnect=0;fontColor=#232F3E;fillColor=#E7157B;strokeColor=#ffffff;dashed=0;verticalLabelPosition=bottom;verticalAlign=top;align=center;html=1;fontSize=12;fontStyle=0;aspect=fixed;shape=mxgraph.aws4.resourceIcon;resIcon=mxgraph.aws4.api_gateway;" vertex="1" parent="1">
          <mxGeometry x="200" y="130" width="78" height="78" as="geometry" />
        </mxCell>
        <mxCell id="6N4GKQXyynScPxJoTJOr-5" value="Internet" style="ellipse;shape=cloud;whiteSpace=wrap;html=1;" vertex="1" parent="1">
          <mxGeometry x="-80" y="270" width="120" height="80" as="geometry" />
        </mxCell>
        <mxCell id="6N4GKQXyynScPxJoTJOr-6" style="edgeStyle=orthogonalEdgeStyle;rounded=0;orthogonalLoop=1;jettySize=auto;html=1;entryX=0.058;entryY=0.556;entryDx=0;entryDy=0;entryPerimeter=0;" edge="1" parent="1" source="6N4GKQXyynScPxJoTJOr-5" target="6N4GKQXyynScPxJoTJOr-8">
          <mxGeometry relative="1" as="geometry">
            <mxPoint x="240" y="309" as="targetPoint" />
          </mxGeometry>
        </mxCell>
        <mxCell id="6N4GKQXyynScPxJoTJOr-7" value="/api/endpoint" style="edgeLabel;html=1;align=center;verticalAlign=middle;resizable=0;points=[];" vertex="1" connectable="0" parent="6N4GKQXyynScPxJoTJOr-6">
          <mxGeometry x="0.0933" y="-2" relative="1" as="geometry">
            <mxPoint as="offset" />
          </mxGeometry>
        </mxCell>
        <mxCell id="6N4GKQXyynScPxJoTJOr-10" style="edgeStyle=orthogonalEdgeStyle;rounded=0;orthogonalLoop=1;jettySize=auto;html=1;" edge="1" parent="1" source="6N4GKQXyynScPxJoTJOr-8" target="6N4GKQXyynScPxJoTJOr-9">
          <mxGeometry relative="1" as="geometry" />
        </mxCell>
        <mxCell id="6N4GKQXyynScPxJoTJOr-8" value="&lt;div&gt;Matches Endpoint with existing patterns&lt;br&gt;&lt;/div&gt;" style="whiteSpace=wrap;html=1;shape=mxgraph.basic.cloud_rect" vertex="1" parent="1">
          <mxGeometry x="240" y="220" width="120" height="90" as="geometry" />
        </mxCell>
        <mxCell id="6N4GKQXyynScPxJoTJOr-9" value="Call Authorizer if Authorizer is attached" style="whiteSpace=wrap;html=1;shape=mxgraph.basic.cloud_rect" vertex="1" parent="1">
          <mxGeometry x="400" y="220" width="120" height="90" as="geometry" />
        </mxCell>
        <mxCell id="6N4GKQXyynScPxJoTJOr-11" style="edgeStyle=orthogonalEdgeStyle;rounded=0;orthogonalLoop=1;jettySize=auto;html=1;entryX=0;entryY=0.5;entryDx=0;entryDy=0;entryPerimeter=0;" edge="1" parent="1" source="6N4GKQXyynScPxJoTJOr-9" target="6N4GKQXyynScPxJoTJOr-2">
          <mxGeometry relative="1" as="geometry" />
        </mxCell>
        <mxCell id="6N4GKQXyynScPxJoTJOr-12" value="payload" style="edgeLabel;html=1;align=center;verticalAlign=middle;resizable=0;points=[];" vertex="1" connectable="0" parent="6N4GKQXyynScPxJoTJOr-11">
          <mxGeometry x="0.0652" y="-3" relative="1" as="geometry">
            <mxPoint as="offset" />
          </mxGeometry>
        </mxCell>
        <mxCell id="6N4GKQXyynScPxJoTJOr-21" style="edgeStyle=orthogonalEdgeStyle;rounded=0;orthogonalLoop=1;jettySize=auto;html=1;" edge="1" parent="1" source="6N4GKQXyynScPxJoTJOr-13" target="6N4GKQXyynScPxJoTJOr-20">
          <mxGeometry relative="1" as="geometry" />
        </mxCell>
        <mxCell id="6N4GKQXyynScPxJoTJOr-22" value="&lt;div&gt;payload&lt;/div&gt;&lt;div&gt;context&lt;br&gt;&lt;/div&gt;" style="edgeLabel;html=1;align=center;verticalAlign=middle;resizable=0;points=[];" vertex="1" connectable="0" parent="6N4GKQXyynScPxJoTJOr-21">
          <mxGeometry x="0.1748" y="5" relative="1" as="geometry">
            <mxPoint as="offset" />
          </mxGeometry>
        </mxCell>
        <mxCell id="6N4GKQXyynScPxJoTJOr-13" value="&lt;div&gt;if statusCode~=2xx&lt;/div&gt;&lt;div&gt;and isAuthorized=true&lt;/div&gt;&lt;div&gt;&lt;br&gt;&lt;/div&gt;" style="whiteSpace=wrap;html=1;shape=mxgraph.basic.cloud_rect" vertex="1" parent="1">
          <mxGeometry x="559" y="220" width="120" height="90" as="geometry" />
        </mxCell>
        <mxCell id="6N4GKQXyynScPxJoTJOr-16" style="edgeStyle=orthogonalEdgeStyle;rounded=0;orthogonalLoop=1;jettySize=auto;html=1;entryX=0.6;entryY=1.038;entryDx=0;entryDy=0;entryPerimeter=0;" edge="1" parent="1" source="6N4GKQXyynScPxJoTJOr-13" target="6N4GKQXyynScPxJoTJOr-5">
          <mxGeometry relative="1" as="geometry">
            <Array as="points">
              <mxPoint x="619" y="353" />
            </Array>
          </mxGeometry>
        </mxCell>
        <mxCell id="6N4GKQXyynScPxJoTJOr-17" value="401" style="edgeLabel;html=1;align=center;verticalAlign=middle;resizable=0;points=[];" vertex="1" connectable="0" parent="6N4GKQXyynScPxJoTJOr-16">
          <mxGeometry x="-0.2985" y="4" relative="1" as="geometry">
            <mxPoint as="offset" />
          </mxGeometry>
        </mxCell>
        <mxCell id="6N4GKQXyynScPxJoTJOr-18" style="edgeStyle=orthogonalEdgeStyle;rounded=0;orthogonalLoop=1;jettySize=auto;html=1;entryX=0.4;entryY=0.1;entryDx=0;entryDy=0;entryPerimeter=0;" edge="1" parent="1" source="6N4GKQXyynScPxJoTJOr-8" target="6N4GKQXyynScPxJoTJOr-5">
          <mxGeometry relative="1" as="geometry">
            <Array as="points">
              <mxPoint x="-32" y="220" />
            </Array>
          </mxGeometry>
        </mxCell>
        <mxCell id="6N4GKQXyynScPxJoTJOr-19" value="404" style="edgeLabel;html=1;align=center;verticalAlign=middle;resizable=0;points=[];" vertex="1" connectable="0" parent="6N4GKQXyynScPxJoTJOr-18">
          <mxGeometry x="0.0667" relative="1" as="geometry">
            <mxPoint as="offset" />
          </mxGeometry>
        </mxCell>
        <mxCell id="6N4GKQXyynScPxJoTJOr-20" value="Integration" style="rounded=0;whiteSpace=wrap;html=1;" vertex="1" parent="1">
          <mxGeometry x="900" y="295" width="120" height="60" as="geometry" />
        </mxCell>
        <mxCell id="6N4GKQXyynScPxJoTJOr-24" value="Proxy" style="whiteSpace=wrap;html=1;shape=mxgraph.basic.cloud_rect" vertex="1" parent="1">
          <mxGeometry x="410" y="380" width="120" height="90" as="geometry" />
        </mxCell>
        <mxCell id="6N4GKQXyynScPxJoTJOr-25" style="edgeStyle=orthogonalEdgeStyle;rounded=0;orthogonalLoop=1;jettySize=auto;html=1;entryX=1.008;entryY=0.589;entryDx=0;entryDy=0;entryPerimeter=0;" edge="1" parent="1" source="6N4GKQXyynScPxJoTJOr-20" target="6N4GKQXyynScPxJoTJOr-24">
          <mxGeometry relative="1" as="geometry">
            <Array as="points">
              <mxPoint x="960" y="430" />
              <mxPoint x="715" y="430" />
              <mxPoint x="715" y="433" />
            </Array>
          </mxGeometry>
        </mxCell>
        <mxCell id="6N4GKQXyynScPxJoTJOr-28" value="&lt;div&gt;statusCode: s&lt;/div&gt;&lt;div&gt;body: b&lt;br&gt;&lt;/div&gt;" style="edgeLabel;html=1;align=center;verticalAlign=middle;resizable=0;points=[];" vertex="1" connectable="0" parent="6N4GKQXyynScPxJoTJOr-25">
          <mxGeometry x="0.5888" y="3" relative="1" as="geometry">
            <mxPoint as="offset" />
          </mxGeometry>
        </mxCell>
        <mxCell id="6N4GKQXyynScPxJoTJOr-26" style="edgeStyle=orthogonalEdgeStyle;rounded=0;orthogonalLoop=1;jettySize=auto;html=1;entryX=0.392;entryY=0.963;entryDx=0;entryDy=0;entryPerimeter=0;" edge="1" parent="1" source="6N4GKQXyynScPxJoTJOr-24" target="6N4GKQXyynScPxJoTJOr-5">
          <mxGeometry relative="1" as="geometry" />
        </mxCell>
        <mxCell id="6N4GKQXyynScPxJoTJOr-27" value="&lt;div&gt;statusCode: s&lt;/div&gt;&lt;div&gt;body: b&lt;br&gt;&lt;/div&gt;" style="edgeLabel;html=1;align=center;verticalAlign=middle;resizable=0;points=[];" vertex="1" connectable="0" parent="6N4GKQXyynScPxJoTJOr-26">
          <mxGeometry x="0.0788" y="-1" relative="1" as="geometry">
            <mxPoint as="offset" />
          </mxGeometry>
        </mxCell>
        <mxCell id="wtmkTjRzIlzetdW1KhO2-5" style="edgeStyle=orthogonalEdgeStyle;rounded=0;orthogonalLoop=1;jettySize=auto;html=1;" edge="1" parent="1" source="wtmkTjRzIlzetdW1KhO2-2" target="6N4GKQXyynScPxJoTJOr-2">
          <mxGeometry relative="1" as="geometry">
            <Array as="points">
              <mxPoint x="410" y="-91" />
              <mxPoint x="410" y="40" />
            </Array>
          </mxGeometry>
        </mxCell>
        <mxCell id="wtmkTjRzIlzetdW1KhO2-6" value="&lt;div&gt;username&lt;/div&gt;&lt;div&gt;password&lt;/div&gt;&lt;div&gt;other details&lt;br&gt;&lt;/div&gt;" style="edgeLabel;html=1;align=center;verticalAlign=middle;resizable=0;points=[];" vertex="1" connectable="0" parent="wtmkTjRzIlzetdW1KhO2-5">
          <mxGeometry x="-0.2565" relative="1" as="geometry">
            <mxPoint as="offset" />
          </mxGeometry>
        </mxCell>
        <mxCell id="wtmkTjRzIlzetdW1KhO2-2" value="" style="sketch=0;points=[[0,0,0],[0.25,0,0],[0.5,0,0],[0.75,0,0],[1,0,0],[0,1,0],[0.25,1,0],[0.5,1,0],[0.75,1,0],[1,1,0],[0,0.25,0],[0,0.5,0],[0,0.75,0],[1,0.25,0],[1,0.5,0],[1,0.75,0]];outlineConnect=0;fontColor=#232F3E;fillColor=#C925D1;strokeColor=#ffffff;dashed=0;verticalLabelPosition=bottom;verticalAlign=top;align=center;html=1;fontSize=12;fontStyle=0;aspect=fixed;shape=mxgraph.aws4.resourceIcon;resIcon=mxgraph.aws4.dynamodb;" vertex="1" parent="1">
          <mxGeometry x="485.5" y="-130" width="78" height="78" as="geometry" />
        </mxCell>
      </root>
    </mxGraphModel>
  </diagram>
</mxfile>
